<svg xmlns="http://www.w3.org/2000/svg" xmlns:xlink="http://www.w3.org/1999/xlink" width="209.429" height="54.775" viewBox="0 0 209.429 54.775"><defs><style>.a{fill:#f06321;}.b{fill:#ae282e;}.c{fill:#fff;}.d{filter:url(#a);}</style><filter id="a" x="0" y="0" width="51.801" height="54.775" filterUnits="userSpaceOnUse"><feOffset input="SourceAlpha"/><feGaussianBlur stdDeviation="2.5" result="b"/><feFlood flood-color="#fff" flood-opacity="0.847"/><feComposite operator="in" in2="b"/><feComposite in="SourceGraphic"/></filter></defs><g transform="translate(7.5 7.5)"><g class="d" transform="matrix(1, 0, 0, 1, -7.5, -7.5)"><path class="a" d="M128.044,53.745c9.1-9.034,20.141-11.379,24.56-5.221s.535,18.6-8.566,27.637c-9.1,9.1-20.141,11.442-24.627,5.218-4.348-6.221-.465-18.6,8.633-27.634" transform="translate(-110.13 -37.59)"/></g><path class="b" d="M131.409,48.916a33.266,33.266,0,0,0-3.01,2.545c-7.964,7.893-11.312,18.733-7.362,24.155,4.08,5.418,13.85,3.412,22.014-4.552a30.8,30.8,0,0,0,8.566-13.85c.334-3.412-.134-6.425-1.672-8.7-3.478-4.816-10.974-4.418-18.536.4" transform="translate(-114.97 -45.078)"/><path class="c" d="M140.744,48.095v.2a6.181,6.181,0,0,1-1.94,3.746c-1.806,1.739-4.214,2.408-5.221,1.408-1.137-1.07-.465-3.415,1.341-5.288,1.873-1.806,4.281-2.408,5.285-1.338a1.713,1.713,0,0,1,.535,1.271m-6.957,30.714c-4.285,3.211-8.7,4.82-12.984,4.151,1.806.067,3.281-1.943,4.485-4.619a46.164,46.164,0,0,0,2.475-7.7c.87-3.813.937-6.489.468-7.091-.736-.94-2.341-.736-4.218.334-.937.535-2.141.2-.732-1.539,1.472-1.739,7.158-5.89,9.164-6.559,2.278-.6,4.82.268,3.95,2.743-.605,1.806-8.5,22.416-2.609,20.275" transform="translate(-112.797 -43.254)"/><g transform="translate(36.714 19.694)"><path class="c" d="M132.186,72.841h6.826L144.363,52.9h-6.756Zm0,0" transform="translate(-132.186 -52.897)"/><path class="c" d="M146.062,72.841h6.826L158.24,52.9h-6.826Zm0,0" transform="translate(-111.063 -52.897)"/><path class="c" d="M159.963,72.841h6.759L172.01,52.9h-6.826Zm0,0" transform="translate(-89.903 -52.897)"/><path class="c" d="M153.786,59.681h6.826c.936-4.482-1.94-6.756-8.633-6.756-7.763,0-12.981,3.813-14.787,10.3-1.542,6.02,1.605,9.636,8.9,9.636,7.362,0,11.71-2.274,13.519-7.428h-6.826a5.262,5.262,0,0,1-5.151,3.412c-3.281,0-4.619-2.007-3.616-5.82,1.07-3.95,3.616-6.158,6.893-6.158,2.141,0,3.077.937,2.876,2.81" transform="translate(-125.146 -52.854)"/><path class="c" d="M167.707,59.681h6.826c.937-4.482-2.01-6.756-8.7-6.756-7.7,0-12.981,3.813-14.72,10.3-1.605,6.02,1.539,9.636,8.833,9.636s11.643-2.274,13.516-7.428h-6.823a5.212,5.212,0,0,1-5.154,3.412c-3.278,0-4.616-2.007-3.549-5.82,1.007-3.95,3.549-6.158,6.826-6.158,2.144,0,3.147.937,2.947,2.81" transform="translate(-104.002 -52.854)"/><path class="c" d="M171.869,69.653l1.539-5.753h3.746V60.823h-2.876l1.338-4.887h1.538V52.923h-5.087l-5.285,19.944h10.372V69.653Zm5.285-5.753h.736c3.415,0,5.02.6,4.351,2.943-.535,2.074-2.207,2.81-5.087,2.81v3.214c2.813,0,4.887-.268,6.96-1.676a6.722,6.722,0,0,0,2.813-3.947c.733-2.743-.472-4.619-3.616-5.017,2.943-.535,4.82-2.077,5.418-4.485a3.292,3.292,0,0,0-1.2-4.014c-1.07-.736-2.876-.806-5.285-.806h-5.087v3.014h2.612c3.211,0,4.682.4,4.214,2.408-.6,1.94-2.341,2.478-5.619,2.478h-1.207Zm0,0" transform="translate(-79.523 -52.856)"/><path class="c" d="M183.229,55.45v2.472a2.325,2.325,0,0,0-1.2,1.408h-4.014c.666-1.94,2.475-3.281,5.218-3.88m0,11.71a5.7,5.7,0,0,1-1.538.2c-1.806,0-2.609-.739-2.208-2.077.4-1.539,1.605-2.074,3.746-2.274V60.668c-4.619.334-7.161,1.539-7.964,4.549-.736,2.743,1.007,4.552,4.619,4.552a9.014,9.014,0,0,0,3.345-.6Zm3.883-4.151-.067.2a5.226,5.226,0,0,1-3.816,3.95v2.007a8.644,8.644,0,0,0,2.676-1.672l-.334,1.94h4.017c.2-.94.4-2.01.669-3.08l1.539-5.619a5.093,5.093,0,0,0,.2-1.4v-.669c-.134-2.278-2.074-3.482-5.686-3.482a20.618,20.618,0,0,0-3.08.271v2.472a4.637,4.637,0,0,1,2.278-.465c2.07,0,2.876.933,2.271,2.943l-.064.2H185.57c-.8,0-1.605.067-2.341.067v2.341Zm0,0" transform="translate(-66.862 -49.423)"/><path class="c" d="M182.276,69.434h4.084l1.94-7.161a5.83,5.83,0,0,1,5.485-4.351c2.408,0,3.281,1.408,2.478,4.218l-1.943,7.295H198.4l2.274-8.5c.937-3.612-.87-5.756-4.883-5.756a8.562,8.562,0,0,0-6.492,2.81l.468-2.475h-4.08c-.4,2.207-.669,3.549-.806,4.084Zm0,0" transform="translate(-55.939 -49.423)"/><path class="c" d="M190.1,72.865h4.017l2.007-7.5,5.422,7.5H207.1L200.942,64.9l8.3-5.957H204.09l-7.7,5.555,3.077-11.576h-4.014Zm0,0" transform="translate(-44.025 -52.854)"/></g></g></svg>